PathFileType	4	(X/Y/Z)	CPRIT_Patient3_L_HipIso_Processed.TRC
DataRate	CameraRate	NumFrames	NumMarkers	Units	OrigDataRate	OrigDataStartFrame	OrigNumFrames
150.114591291062	150.114591291062	4	39	m	150.114591291062	1	       1311
Frame#	Time	R.Heel			R.Midfoot.Superior			R.Midfoot.Lateral			R.Toe			L.Heel			L.Midfoot.Superior			L.Midfoot.Lateral			L.Toe			R.Shank.Superior			R.Shank.Inferior			R.Shank.Lateral			R.Shank.Posterior			L.Shank.Superior			L.Shank.Inferior			L.Shank.Posterior			L.Shank.Lateral			R.Patella			L.Patella			R.Thigh.Superior			R.Thigh.Lateral			R.Thigh.Inferior			L.Thigh.Superior			L.Thigh.Inferior			L.Thigh.Lateral			L.Asis			R.Asis			Sacral			R.Shoulder			L.Shoulder			C7			J.Notch			Sternum			Thoracic			L.Elbow			L.Wrist			R.Elbow			R.Wrist			R.PSIS			L.PSIS			
		X1	Y1	Z1	X2	Y2	Z2	X3	Y3	Z3	X4	Y4	Z4	X5	Y5	Z5	X6	Y6	Z6	X7	Y7	Z7	X8	Y8	Z8	X9	Y9	Z9	X10	Y10	Z10	X11	Y11	Z11	X12	Y12	Z12	X13	Y13	Z13	X14	Y14	Z14	X15	Y15	Z15	X16	Y16	Z16	X17	Y17	Z17	X18	Y18	Z18	X19	Y19	Z19	X20	Y20	Z20	X21	Y21	Z21	X22	Y22	Z22	X23	Y23	Z23	X24	Y24	Z24	X25	Y25	Z25	X26	Y26	Z26	X27	Y27	Z27	X28	Y28	Z28	X29	Y29	Z29	X30	Y30	Z30	X31	Y31	Z31	X32	Y32	Z32	X33	Y33	Z33	X34	Y34	Z34	X35	Y35	Z35	X36	Y36	Z36	X37	Y37	Z37	X38	Y38	Z38	X39	Y39	Z39	

1	0.000000000000	0.872863078114	0.049174600914	0.147601956061	1.041490389566	0.099322394695	0.132601920659	0.958138718202	0.037566313914	0.190520101792	1.158380778475	0.056798457693	0.120052614200	0.767364738958	0.068515478516	0.016919306743	0.913862034206	0.107216732960	-0.078682345991	0.812463483386	0.046339250001	-0.067217653721	1.015012998861	0.057086427664	-0.129958871750	1.001185780081	0.362418580920	0.153562020942	0.993797548395	0.241345987311	0.154499863170	0.938478075252	0.295945577106	0.224090035330	0.864579179303	0.356692080120	0.181819291832	0.912113816479	0.380171008258	-0.091459650705	0.886371750326	0.254093926480	-0.068714104633	0.778175472203	0.375367630316	-0.036987583279	0.818898741864	0.303995104107	-0.105122301610	1.017425356852	0.476892980299	0.123802283327	0.950015723336	0.493067310316	-0.099261107120	1.068497724981	0.774631519994	0.113079760598	1.005783840568	0.714241824990	0.201087854796	1.044623001436	0.620371297494	0.097375477782	0.967103378225	0.813037917284	-0.128152242257	0.968577112768	0.642497800377	-0.113250877062	0.861217804337	0.728487909267	-0.148184706918	0.955595113276	0.962148217324	-0.110495400571	1.062210652213	0.927596778878	0.098109630181	0.855696723940	1.016463861999	0.083857146084	1.049754254042	1.453512032598	0.177673089977	0.960850993467	1.437570298443	-0.135974245150	0.966383172992	1.487953777301	0.041648693745	1.073439261890	1.376600193243	0.000522778929	1.102325039429	1.192099283272	-0.018692216423	0.872800629822	1.342120504568	0.079136573225	0.866577452615	1.167967414577	-0.285555722562	0.958854769973	0.988074137117	-0.437334858720	0.963665640911	1.209449738667	0.397601081795	1.088445586220	0.989124601902	0.420277651436	0.875392868967	1.013740991474	0.113219428355	0.838622993709	1.018673499288	0.044409934356	
2	0.006661577608	0.872825227739	0.049192419987	0.147631461127	1.041484360245	0.099325046570	0.132585988605	0.958139347106	0.037566923920	0.190516644879	1.158384028232	0.056806613214	0.120061731611	0.768480706446	0.068268461837	0.015947400026	0.914561499063	0.107201265273	-0.080218530273	0.813184609474	0.046289914914	-0.068449734728	1.015465718343	0.057198006819	-0.132042744462	1.001168083840	0.362420889678	0.153550993004	0.993780731355	0.241347619435	0.154487378744	0.938474669050	0.295946873110	0.224070082855	0.864560560354	0.356688622333	0.181809590758	0.912630895878	0.380131086200	-0.092449118417	0.887043658683	0.254050267286	-0.069852879751	0.778916452958	0.375218478107	-0.037514389519	0.819406840836	0.303976882197	-0.105917409822	1.017407526976	0.476869238207	0.123778152231	0.950463872132	0.493097752826	-0.100213335673	1.068526424070	0.774639333216	0.113117189649	1.005809991850	0.714212183160	0.201121699216	1.044632287944	0.620351142987	0.097398238165	0.967077848313	0.813139379983	-0.128504914148	0.968694232215	0.642524191055	-0.113954884339	0.861178744043	0.728472289622	-0.148445633576	0.955548647838	0.962086267775	-0.110494217492	1.062232279451	0.927650559151	0.098126960277	0.855660584009	1.016354129612	0.083892416737	1.049372239861	1.453568034417	0.177642057920	0.960669856951	1.437597563021	-0.135995341178	0.966042086125	1.487956693149	0.041582007889	1.073150358198	1.376618229812	0.000521177857	1.102135923466	1.192131331548	-0.018660295895	0.872529716597	1.342070768562	0.079072069304	0.866446906918	1.167920024562	-0.285563466609	0.958843945159	0.988068854350	-0.437331068436	0.963480860297	1.209378492536	0.397522765375	1.088426843027	0.989125658147	0.420263140136	0.875356869067	1.013659820800	0.113263978544	0.838566786329	1.018541786954	0.044446554111	
3	0.013323155216	0.872789879839	0.049208813589	0.147658316482	1.041478836754	0.099327172266	0.132569366665	0.958140004644	0.037567546836	0.190513006787	1.158387816780	0.056814154850	0.120070048467	0.769622841643	0.068022109084	0.014901982006	0.915280369760	0.107192261437	-0.081834875563	0.813921175941	0.046248889845	-0.069762221811	1.015931621645	0.057320009637	-0.134218691487	1.001151595584	0.362422882446	0.153538245059	0.993764468480	0.241348930759	0.154473743104	0.938474052267	0.295948924664	0.224048323999	0.864543024916	0.356685451333	0.181799029597	0.913169074702	0.380096841403	-0.093494829902	0.887738207733	0.254012287943	-0.071058023308	0.779682681775	0.375071539180	-0.038093285891	0.819936013164	0.303966393890	-0.106771512368	1.017391126335	0.476845271503	0.123752197650	0.950934015557	0.493136337202	-0.101217699191	1.068555979410	0.774647308231	0.113150627477	1.005839096667	0.714182290156	0.201153338879	1.044642305486	0.620330773462	0.097417668958	0.967054491921	0.813251192681	-0.128875888924	0.968821294036	0.642560822349	-0.114696045780	0.861144231059	0.728463390741	-0.148726844625	0.955500912073	0.962027635091	-0.110494386153	1.062254545577	0.927705100668	0.098143052933	0.855623690926	1.016241146185	0.083930083891	1.048977985671	1.453625457242	0.177616233232	0.960479880503	1.437624224128	-0.136012465000	0.965689560380	1.487960403883	0.041519666922	1.072851544552	1.376638019126	0.000525047975	1.101940896663	1.192166076815	-0.018622402915	0.872249817079	1.342019755060	0.079010854448	0.866314811427	1.167871263706	-0.285569131013	0.958832792189	0.988063899329	-0.437326941585	0.963289438021	1.209304729386	0.397447573392	1.088407204801	0.989126745233	0.420249102900	0.875320251017	1.013575879373	0.113311083293	0.838508734294	1.018406707897	0.044485805725	
4	0.019984732824	0.872757246857	0.049223679653	0.147682362665	1.041473867168	0.099328677393	0.132552066825	0.958140682122	0.037568193377	0.190509205056	1.158392087162	0.056820983404	0.120077449596	0.770786469764	0.067778242228	0.013780368700	0.916016567955	0.107190712731	-0.083530115036	0.814670688476	0.046217507648	-0.071156451063	1.016410028305	0.057453027591	-0.136482456506	1.001136510328	0.362424529107	0.153523582580	0.993748894197	0.241349887706	0.154458839905	0.938476412362	0.295951787887	0.224024641018	0.864526764771	0.356682611758	0.181787437373	0.913727585290	0.380069416824	-0.094596510157	0.888453734158	0.253981026346	-0.072329531141	0.780471983954	0.374928099476	-0.038727328088	0.820485653985	0.303964758830	-0.107686434400	1.017376368886	0.476821201525	0.123724282911	0.951425890005	0.493183940554	-0.102273400970	1.068586282463	0.774655424185	0.113179440741	1.005871160483	0.714152259479	0.201182254604	1.044653098610	0.620310256544	0.097433262934	0.967034073567	0.813373976880	-0.129264634957	0.968959038207	0.642608776194	-0.115473400249	0.861115533379	0.728462218664	-0.149029020011	0.955452268500	0.961973251236	-0.110496063243	1.062277379593	0.927760271729	0.098157770963	0.855586164350	1.016125299195	0.083970039573	1.048572622578	1.453684073319	0.177596560588	0.960281347997	1.437650063858	-0.136024993672	0.965326621424	1.487964990940	0.041462739892	1.072543697492	1.376659713693	0.000535141590	1.101740602994	1.192203692648	-0.018578036378	0.871961776144	1.341967632329	0.078953725600	0.866182034596	1.167821309340	-0.285572368496	0.958821363258	0.988059320191	-0.437322477064	0.963091797504	1.209228562088	0.397376488037	1.088386698996	0.989127846446	0.420235723178	0.875283119283	1.013489353091	0.113360519221	0.838449055958	1.018268829221	0.044527569605	
